<?xml version="1.0" standalone="no"?>
<!DOCTYPE svg PUBLIC "-//W3C//DTD SVG 20010904//EN"
 "http://www.w3.org/TR/2001/REC-SVG-20010904/DTD/svg10.dtd">
<svg version="1.0" xmlns="http://www.w3.org/2000/svg"
 width="391.000000pt" height="391.000000pt" viewBox="0 0 391.000000 391.000000"
 preserveAspectRatio="xMidYMid meet">
<metadata>
Created by potrace 1.14, written by Peter Selinger 2001-2017
</metadata>
<g transform="translate(0.000000,391.000000) scale(0.100000,-0.100000)"
fill="#000000" stroke="none">
<path d="M1555 3490 c-82 -4 -231 -8 -330 -9 -99 -1 -190 -4 -203 -7 -14 -4
-24 -17 -28 -33 -3 -14 -9 -34 -15 -43 -5 -10 -9 -26 -9 -36 0 -10 -7 -27 -15
-38 -8 -10 -15 -29 -15 -42 0 -12 -4 -30 -9 -40 -13 -26 -32 -84 -38 -112 -2
-14 -8 -34 -13 -45 -20 -51 -40 -112 -40 -127 0 -9 -7 -29 -15 -44 -8 -16 -15
-39 -15 -51 0 -12 -4 -25 -10 -28 -6 -3 -10 -20 -10 -36 0 -17 -7 -37 -15 -45
-8 -9 -15 -28 -15 -44 0 -16 -4 -32 -10 -35 -5 -3 -10 -18 -10 -33 0 -15 -7
-36 -15 -46 -8 -11 -15 -30 -15 -43 0 -13 -4 -31 -9 -41 -16 -32 -33 -87 -38
-120 -3 -18 -9 -35 -14 -38 -5 -3 -9 -13 -9 -22 0 -9 -7 -30 -15 -46 -8 -15
-15 -40 -15 -55 0 -15 -4 -31 -9 -36 -10 -12 -41 -108 -41 -129 0 -8 -6 -27
-14 -43 -18 -37 -36 -94 -36 -119 0 -10 -7 -28 -15 -38 -8 -11 -15 -32 -15
-48 0 -15 -4 -28 -9 -28 -5 0 -11 -15 -14 -32 -4 -29 -11 -51 -37 -123 -27
-72 -40 -113 -40 -127 0 -9 -7 -29 -15 -44 -8 -16 -15 -39 -15 -51 0 -12 -4
-25 -10 -28 -5 -3 -10 -20 -10 -36 0 -17 -7 -37 -15 -45 -8 -9 -15 -28 -15
-44 0 -16 -4 -32 -10 -35 -5 -3 -10 -18 -10 -33 0 -15 -7 -36 -15 -46 -8 -11
-15 -32 -15 -47 0 -15 -4 -31 -10 -34 -5 -3 -10 -18 -10 -33 0 -15 -7 -36 -15
-46 -8 -11 -15 -30 -15 -43 0 -13 -4 -31 -9 -41 -13 -26 -32 -84 -38 -112 -3
-14 -11 -39 -19 -57 -8 -17 -14 -38 -14 -46 0 -9 -4 -19 -10 -22 -5 -3 -10
-21 -10 -40 0 -18 -5 -35 -10 -37 -18 -6 -25 -79 -9 -89 8 -5 300 -9 652 -9
l638 0 24 26 c14 15 25 38 25 51 0 13 7 40 15 60 8 19 15 48 15 64 0 15 4 30
9 33 5 3 12 26 15 51 4 24 11 47 17 50 5 4 9 17 9 31 l0 24 370 0 370 0 0 -22
c0 -13 7 -36 15 -52 8 -15 15 -41 15 -57 0 -15 5 -31 10 -34 6 -3 10 -18 10
-33 0 -15 7 -40 15 -56 8 -15 15 -39 15 -53 0 -13 10 -37 22 -53 l22 -30 656
0 c482 0 659 3 668 12 8 8 8 16 0 32 -6 11 -14 34 -18 51 -12 45 -51 157 -66
187 -8 14 -14 35 -14 46 0 12 -4 24 -10 27 -5 3 -10 16 -10 29 0 12 -7 31 -15
42 -8 10 -15 31 -15 46 0 15 -4 30 -10 33 -5 3 -10 16 -10 29 0 12 -7 31 -15
42 -8 10 -15 31 -15 46 0 15 -4 30 -10 33 -5 3 -10 13 -10 22 0 8 -6 29 -13
46 -19 43 -57 155 -67 192 -4 17 -13 44 -20 60 -7 17 -16 39 -20 50 -21 58
-32 92 -37 110 -2 11 -8 29 -12 40 -23 58 -34 93 -38 118 -3 15 -9 30 -14 33
-5 3 -9 13 -9 22 0 9 -7 30 -15 46 -8 15 -15 36 -15 46 0 10 -7 31 -15 46 -8
16 -15 37 -15 46 0 9 -4 20 -10 23 -5 3 -10 15 -10 25 0 17 -18 66 -41 112 -5
10 -9 28 -9 41 0 13 -7 32 -15 43 -8 10 -15 29 -15 41 0 12 -4 24 -9 27 -5 3
-11 18 -14 33 -5 28 -24 86 -37 113 -4 9 -11 30 -14 48 -4 17 -12 34 -17 37
-5 4 -9 19 -9 35 0 16 -4 31 -9 34 -5 3 -12 22 -15 41 -4 19 -11 35 -16 35 -6
0 -10 10 -10 23 0 23 -30 111 -43 123 -4 4 -7 18 -7 30 0 13 -7 40 -16 61 -9
21 -20 47 -24 58 -4 11 -13 36 -20 55 -7 19 -15 47 -17 63 -3 15 -9 30 -14 33
-5 3 -9 13 -9 22 0 9 -7 30 -15 46 -8 15 -15 39 -15 52 0 12 -4 26 -10 29 -5
3 -10 14 -10 23 0 9 -7 30 -15 46 -8 15 -15 34 -15 42 0 7 -9 29 -21 48 l-21
36 -476 -2 c-263 -1 -544 -5 -627 -8z"/>
</g>
</svg>
